<!-- icon666.com - MILLIONS OF FREE VECTOR ICONS --><svg viewBox="0 0 58 58" xmlns="http://www.w3.org/2000/svg"><g id="014---Feed-Animal" fill="none"><path id="Shape" d="m58 5v29c-3-8-8-9-15.22-9-.6205299 1.8943705-1.6911111 3.6100455-3.12 5l-14.18 9c-1.0918615 2.6731169-3.8184711 4.3033767-6.69 4-3.5211148-.4625125-6.0648013-3.5992866-5.79-7.14.0597963-1.3424304.4004618-2.6573991 1-3.86l1-1.8 12.2-22.71c.5131558-.95171186 1.3897388-1.65514266 2.43-1.95l5.37-1.54h22c.5522847 0 1 .44771525 1 1z" fill="#a56a43"></path><path id="Shape" d="m30.45 8.29-4.67-6c-.2569943-.33198188-.2792618-.78914046-.0557481-1.14452714.2235136-.35538667.6452112-.53332194 1.0557481-.44547286l5.34 1.3c1.6279197.4050235 2.9541653 1.58183298 3.55 3.15.1761674.45467634-.0012807.97012073-.42 1.22l-3.49 2.16c-.4341743.26470636-.9978668.16143445-1.31-.24z" fill="#805333"></path><path id="Shape" d="m30.57 50.22-10.57 6.25c-.6050158.3577678-1.297208.5411987-2 .53h-13.27c.17-.29-.73-.64-.73-1v-10.0000438l2.38.0000438c1.11951359-.0045526 2.21171714.3455127 3.12 1 .903939.655592 1.9933659 1.00589 3.11 1h3.39c1.1045695 0 2 .8954305 2 2 .0017797.2002167-.0286072.3994198-.09.59-.2586959.8379096-1.0330645 1.4095639-1.91 1.41h1 .2c.1674851-.0080875.3327393-.0418129.49-.1l11.58-4.36c.6164054-.2166881 1.3026237-.0342255 1.73.46.2804719.3367646.3948259.7817104.3114859 1.211977-.0833399.4302666-.3555571.800336-.7414859 1.008023z" fill="#fdd7ad"></path><path id="Shape" d="m17.91 50.59c-.2586959.8379096-1.0330645 1.4095639-1.91 1.41h-2.13c-.7586432.0028124-1.5008439.2213107-2.14.63l-.2.13c-.1591413.098629-.3427748.1506008-.53.15-.4474094.0014432-.8413328-.2944782-.9645533-.7245874-.12322052-.4301093.054251-.8897276.4345533-1.1254126l.19-.12c.95716-.6158999 2.0718073-.9423075 3.21-.94h3.13c.3928994.0008198.7489117.231641.91.59z" fill="#f9c795"></path><g fill="#805333"><path id="Shape" d="m44 7c0 .55228475-.4477153 1-1 1s-1-.44771525-1-1c0-1.65685425-1.3431458-3-3-3h4c.6530436.86341509 1.0043858 1.91744177 1 3z" fill="#805333"></path><path id="Shape" d="m49 7c0 .55228475-.4477153 1-1 1s-1-.44771525-1-1c0-1.65685425-1.3431458-3-3-3h4c.6530436.86341509 1.0043858 1.91744177 1 3z" fill="#805333"></path><path id="Shape" d="m54 7c0 .55228475-.4477153 1-1 1s-1-.44771525-1-1c0-1.65685425-1.3431458-3-3-3h4c.6530436.86341509 1.0043858 1.91744177 1 3z" fill="#805333"></path></g><path id="Shape" d="m5 46v10c0 1.1045695-.8954305 2-2 2h-1c-1.1045695 0-2-.8954305-2-2v-10c0-1.1045695.8954305-2 2-2h1c1.1045695 0 2 .8954305 2 2z" fill="#955ba5" style="fill: rgb(60, 75, 185);"></path><path id="Shape" d="m25.48 39.05c-1.1086085 2.6534131-3.8311619 4.2608998-6.69 3.95-3.5211148-.4625125-6.0648013-3.5992866-5.79-7.14.0597963-1.3424304.4004618-2.6573991 1-3.86l1-1.8c4.3553446 1.7442526 8.0310362 4.8482478 10.48 8.85z" fill="#cf976a"></path></g></svg>