<?xml version="1.0" encoding="iso-8859-1"?>
<!-- Uploaded to: SVG Repo, www.svgrepo.com, Generator: SVG Repo Mixer Tools -->
<!DOCTYPE svg PUBLIC "-//W3C//DTD SVG 1.1//EN" "http://www.w3.org/Graphics/SVG/1.1/DTD/svg11.dtd">
<svg fill="#000000" version="1.1" id="Capa_1" xmlns="http://www.w3.org/2000/svg" xmlns:xlink="http://www.w3.org/1999/xlink" 
	 width="800px" height="800px" viewBox="0 0 98.044 98.044"
	 xml:space="preserve">
<g>
	<g>
		<path d="M46.402,25.721c-0.001-0.068-0.01-0.147-0.032-0.131C46.308,25.636,46.327,25.677,46.402,25.721z"/>
		<path d="M93.904,57.85c-0.185-0.772-0.37-1.545-0.561-2.314c-0.277-1.117-0.061-1.67,0.189-2.062
			c0.352-0.554,0.49-1.143,0.564-1.537c0.411-2.197-0.115-3.965-1.563-5.256c-0.293-0.262-0.588-0.472-0.848-0.657
			c-0.158-0.113-0.318-0.224-0.466-0.349l-0.167-0.142c-2.197-1.859-4.461-3.775-7.029-5.35c0.029-0.678,0.067-1.322,0.169-1.925
			c0.363-2.143-0.145-4.192-1.553-6.262c-0.812-1.194-1.38-2.209-1.512-3.278c-0.026-0.209-0.053-0.418-0.077-0.629
			c0.132,0.364,0.323,0.714,0.57,1.033c0.586,0.758,1.388,1.232,2.259,1.336l0.068,0.008c0.09,0.01,0.2,0.023,0.28,0.036
			c0.304,0.261,0.782,0.522,1.48,0.522c0.054,0,0.109-0.002,0.165-0.004c0.163,0,0.284-0.005,0.406-0.011
			c0.058-0.003,0.115-0.006,0.173-0.006c0.314,0.05,0.61,0.076,0.894,0.076c0.813,0,1.548-0.224,2.181-0.667
			c0.387-0.27,0.669-0.654,0.815-1.088c0.136-0.076,0.045-0.154,0.18-0.234c0.849-0.502,0.919-1.449,0.919-2.108v-0.471l0.139-0.186
			c-0.005-0.017,0.105-0.034,0.102-0.052l0.075-0.029c0.102-0.175,0.271-0.444,0.354-0.754c0.059-0.213,0.103-0.437,0.103-0.662
			c0-0.224-0.024-0.448-0.084-0.667c-0.012-0.039-0.023-0.092-0.042-0.152l-0.027-0.097l-0.017-0.086
			c-0.073-0.348-0.164-0.781-0.292-1.223c-0.682-2.357-1.033-4.599-1.076-6.85c0.007-0.026,0.014-0.053,0.021-0.08
			c0.05-0.186,0.095-0.373,0.121-0.56c0.021-0.146,0.055-0.293,0.085-0.441c0.121-0.576,0.271-1.292,0.127-2.1
			c-0.192-1.077-0.492-2.098-0.782-3.084c-0.055-0.185-0.109-0.37-0.162-0.554c0.218-0.135,0.435-0.256,0.634-0.335
			c1.465-0.583,2.212-1.75,2.658-2.447c0.217-0.339,0.335-0.716,0.36-1.153c0.036-0.598-0.178-1.003-0.587-1.438
			c-0.408-0.435-0.984-0.496-1.583-0.496h-0.067L91.419,2.88c-0.364,0.025-0.684-0.184-0.979-0.031
			c-0.662,0.342-1.378,0.214-2.188,0.214h-0.065c-0.11,0-0.22,0.191-0.329,0.184C87.655,3.234,87.452,3.14,87.25,3.14
			c-0.07,0-0.141-0.077-0.209-0.077c-0.003,0-0.007,0-0.009,0c-0.126,0-0.255,0.015-0.386-0.056
			c0.022-0.078,0.043-0.066,0.063-0.144c0.073-0.285,0.085-0.483,0.086-0.642c0.007-0.839-0.378-1.552-1.031-1.945L85.289,0
			l-0.577,0.006c-0.564,0-1.125,0.236-1.578,0.664l-0.057,0.053c-0.14,0.133-0.279,0.266-0.425,0.392l-0.207,0.181
			c-0.074,0.066-0.149,0.132-0.223,0.196c-0.207-0.087-0.443-0.177-0.706-0.247c-2.131-0.565-4.24-0.638-5.84-0.638
			c-0.373,0-0.745,0.004-1.119,0.011c-0.424,0.008-0.775,0.135-1.037,0.274c-0.123-0.003-0.249-0.005-0.375-0.005
			c-0.34,0-0.628,0.014-0.905,0.043c-0.497,0.053-0.905,0.207-1.205,0.32c-0.086,0.032-0.171,0.068-0.258,0.092
			c-0.354,0.097-0.712,0.186-1.068,0.276c-0.697,0.175-1.418,0.357-2.145,0.591l-0.09,0.029c-0.909,0.293-1.94,0.626-2.882,1.235
			c-0.751,0.486-1.405,0.748-2.12,0.85c-0.908,0.129-1.47,0.448-1.815,0.818c-0.062,0.026-0.124,0.055-0.184,0.086l-0.681-0.122
			c-0.164-0.026-0.295-0.042-0.396-0.042h-1.572l-0.407,1.549c-0.097,0.397-0.072,0.863,0.112,1.289l-0.114,0.054
			c-0.435,0.196-0.743,0.482-0.946,0.803l-0.272,0.144c-0.383,0.202-0.681,0.457-0.89,0.763c-1.04,0.35-2.082,0.696-3.124,1.042
			l-1.13,0.376c-0.148,0.034-0.281,0.079-0.403,0.132c-0.085-0.031-0.188-0.073-0.288-0.114l-0.114-0.047
			c-0.31-0.125-0.621-0.188-0.928-0.188c-0.844,0-1.592,0.496-1.905,1.264c-0.092,0.226-0.143,0.3-0.148,0.55
			c-0.183,0.159-0.343,0.383-0.469,0.383h-1.104l-0.238,1.932c-0.096,0.786,0.284,1.834,1.323,2.219
			c-0.1,0.196-0.168,0.453-0.2,0.68c-0.031,0.223-0.025,0.467,0.015,0.68c-0.041,0.038-0.08,0.088-0.117,0.128l-0.133,0.028
			c-0.576,0.1-1.01,0.385-1.302,0.749l-0.384,0.019c-0.986,0.046-1.776,0.706-1.967,1.641c-0.186,0.911,0.255,1.805,1.101,2.245
			c-0.008,0.235,0.024,0.481,0.104,0.72c-0.373,0.376-0.596,0.893-0.584,1.463c0.012,0.58,0.265,1.094,0.665,1.455
			c-0.002,0.004-0.003,0.009-0.005,0.013l-0.02,0.012c-0.619,0.384-0.954,0.909-1.065,1.444c-0.521,0.546-0.71,1.303-0.481,2.03
			c0.199,0.631,0.686,1.108,1.294,1.312c0.019,0.251,0.081,0.477,0.157,0.653l0.125,0.287c-0.778,0.285-1.556,0.568-2.339,0.839
			c-0.837,0.289-1.46,0.453-2.021,0.53c-0.439,0.06-0.913,0.084-1.415,0.109c-0.658,0.032-1.339,0.066-2.054,0.185
			c-0.978,0.163-1.842,0.545-2.604,0.882l-0.147,0.065c-0.595,0.262-1.117,0.593-1.578,0.884l-0.257,0.162
			c-2.156,1.346-4.601,2.871-6.411,5.179c-0.96,1.223-2.179,2.31-3.727,3.323c-0.383,0.251-0.666,0.544-0.872,0.757l-0.103,0.106
			c-0.166,0.167-0.327,0.339-0.488,0.51c-0.224,0.239-0.436,0.464-0.644,0.657c-0.47,0.436-0.945,0.867-1.42,1.298
			c-0.704,0.638-1.431,1.298-2.139,1.974c-0.555,0.529-1.025,1.146-1.361,1.787c-0.994,1.897-1.978,3.834-2.93,5.707l-0.742,1.459
			c-0.107,0.211-0.168,0.401-0.205,0.527c-0.132,0.453-0.133,0.871-0.039,1.238l-0.358,1.029c-0.27,0.322-0.455,0.748-0.486,1.27
			c-0.012,0.205-0.03,0.374-0.055,0.516c-0.284,1.612-0.916,3.23-1.878,4.811c-0.351,0.576-0.771,1.146-1.216,1.752
			c-0.421,0.572-0.856,1.164-1.257,1.796c-0.008,0.01-0.016,0.021-0.025,0.032l-0.88,0.176l-0.382,1.146
			c-0.086,0.273-0.208,0.891,0.143,1.553c0.058,0.193,0.143,0.378,0.256,0.55c0.227,0.345,0.546,0.606,0.913,0.763
			c-0.157,0.438-0.169,0.85-0.081,1.213c-0.109,0.24-0.221,0.482-0.335,0.729C4.274,79.521,3.684,80.8,3.273,82.24
			c-0.114,0.4-0.113,0.809-0.005,1.186l-0.05,0.186c-0.31,1.143,0.145,1.943,0.725,2.367l0.089,0.196l0.53,0.181
			c0.384,0.467,0.963,0.76,1.616,0.76c0.45,0,0.885-0.143,1.259-0.41l0.815-0.585l0.123-0.089c0.255-0.024,0.59-0.106,0.927-0.327
			c0.24-0.056,0.512-0.164,0.787-0.363c0.342-0.248,0.61-0.51,0.825-0.721c0.091-0.089,0.181-0.181,0.278-0.263
			c1.057-0.91,1.988-1.985,2.692-3.111c0.625-1,1.403-1.918,2.366-2.786c0.374-0.069,0.726-0.241,1.034-0.506
			c0.074-0.063,0.143-0.122,0.208-0.177c0.158,0.039,0.323,0.059,0.492,0.059c0.636,0,1.238-0.292,1.65-0.801l0.961-1.188
			l0.215-0.265c0.301-0.147,0.618-0.397,0.876-0.817c0.433-0.703,0.772-1.423,1.051-2.148c-0.009,0.974,0.34,1.785,0.737,2.39
			c0.668,1.019,1.294,2.032,1.862,3.013l0.247,0.426c0.817,1.41,1.661,2.867,2.404,4.318c0.62,1.207,1.222,2.467,1.804,3.684
			c0.424,0.889,0.849,1.775,1.285,2.658c0.339,0.685,1.024,2.068,2.547,2.664c-0.01,0.09-0.013,0.164-0.015,0.213
			c-0.091,1.154,0.166,2.82,1.874,4.273c1.296,1.102,2.899,1.682,4.901,1.77c0.26,0.013,0.522,0.019,0.784,0.019
			c0.672,0,1.323-0.041,1.935-0.121c0.357-0.047,1.443-0.19,2.019-1.221c0.577-1.032,0.132-2.025-0.035-2.397
			c-0.881-1.968-1.977-4.275-3.432-6.482c-0.374-0.566-0.879-0.961-1.277-1.241c-0.886-0.624-1.554-1.183-1.933-1.886
			c-0.255-0.471-0.512-0.942-0.769-1.414c-0.705-1.291-1.434-2.627-2.093-3.949c-0.885-1.773-1.006-3.191-0.392-4.598
			c0.09-0.207,0.189-0.393,0.295-0.559c1.177,0.764,2.453,1.566,3.816,2.273c1.142,0.592,1.98,1.191,2.637,1.885l0.392,0.413
			c0.708,0.745,1.378,1.448,1.959,2.192c0.065,0.084,0.124,0.17,0.183,0.256c0.186,0.268,0.438,0.633,0.811,0.973
			c-0.062,0.191-0.122,0.396-0.171,0.621c-0.151,0.697-0.26,1.454-0.044,2.252c0.46,1.695,1.187,3.171,2.163,4.386
			c0.365,0.454,0.755,0.871,1.132,1.274l0.372,0.4c0.412,0.446,0.99,0.703,1.588,0.703c0.829,0,1.569-0.472,1.934-1.23l0.351-0.732
			c0.319-0.665,0.617-1.285,0.908-1.91l0.037-0.078c0.519-1.111,1.229-2.633,0.645-4.481c-0.413-1.306-0.577-2.699-0.696-4.388
			c-0.055-0.764-0.406-1.545-0.943-2.09c-0.639-0.647-1.307-1.227-1.953-1.785c-1.983-1.719-3.898-3.426-5.525-5.414
			c-0.436-0.531-0.52-1.002-0.293-1.621c0.166-0.452,0.431-0.932,0.688-1.383c1.135-1.996,1.69-3.969,1.695-6.033
			c0-0.039,0.008-0.094,0.021-0.159c0.624-0.065,1.266-0.142,1.929-0.288c1.01-0.225,2.059-0.428,3.073-0.622
			c2.864-0.552,5.825-1.122,8.687-2.325c0.914-0.384,1.864-0.757,2.784-1.117c0.973-0.381,1.979-0.774,2.969-1.192
			c0.929-0.392,1.831-0.826,2.703-1.246c0.346-0.167,0.691-0.333,1.039-0.497c0.625,0.514,1.36,0.654,1.685,0.691
			c0.432,0.052,0.863,0.104,1.294,0.156c1.601,0.193,3.254,0.395,4.915,0.502c1.454,0.094,2.915,0.129,4.327,0.162
			c0.646,0.014,1.294,0.2,1.941,0.221c-0.554,1.072-1.06,2.119-1.619,3.119h-0.02c-0.809,0-1.391-0.049-1.837,0.203
			c-0.23-0.133-0.513-0.332-0.848-0.381c-0.637-0.092-1.284-0.184-1.926-0.189c-0.797,0-1.613,0.377-2.102,0.994
			c-1.022,1.291-2.22,3.063-2.39,5.402c-0.058,0.788-0.122,1.676,0.571,2.448c0.688,0.763,1.555,0.788,2.25,0.81l0.168,0.004
			c0.188,0.008,0.377,0.01,0.562,0.01c2.179,0,4.19-0.438,6.059-0.979c-0.013,0.055-0.022,0.105-0.032,0.156
			c-0.386,2.002-0.022,3.908,1.049,5.516c0.431,0.646,1.078,1.194,1.977,1.678c0.49,0.263,0.986,0.396,1.477,0.396
			c0.672,0,1.642-0.247,2.441-1.424c0.195-0.286,0.382-0.577,0.57-0.869c0.244-0.38,0.475-0.737,0.716-1.073
			c0.712-0.994,1.43-2.084,1.688-3.509c0.181-1.003,0.523-1.899,1.049-2.741c0.578-0.929,0.731-2,0.447-3.098
			C94.478,60.238,94.187,59.023,93.904,57.85z M23.503,70.146c0.028-0.108,0.056-0.219,0.083-0.328
			c0.11-0.153,0.205-0.33,0.281-0.535c0.158-0.424,0.236-0.814,0.296-1.146c0.061-0.338,0.127-0.675,0.194-1.012
			c0.171-0.874,0.349-1.777,0.451-2.717c0.007-0.059,0.012-0.119,0.017-0.178c0.256,0.379,0.532,0.752,0.833,1.117
			c0.395,0.477,0.244,0.732,0.163,0.87c-0.251,0.427-0.498,0.858-0.745,1.288c-0.502,0.875-0.976,1.702-1.49,2.508
			C23.559,70.059,23.53,70.102,23.503,70.146z M92.64,63.459c-0.663,1.066-1.096,2.213-1.319,3.441
			c-0.187,1.033-0.749,1.869-1.345,2.699c-0.462,0.644-0.868,1.328-1.314,1.982c-0.243,0.359-0.486,0.548-0.787,0.548
			c-0.158,0-0.331-0.052-0.53-0.157c-0.472-0.254-0.97-0.593-1.259-1.025c-0.811-1.215-1.025-2.594-0.749-4.028
			c0.054-0.278,0.17-0.594,0.361-0.79c0.721-0.734,1.459-1.454,2.238-2.125c0.509-0.439,0.684-1.105,0.397-1.713
			c-0.168-0.355-0.279-0.757-0.321-1.148c-0.047-0.443-0.022-0.896-0.015-1.418c0.001-0.082-0.036-0.129-0.091-0.129
			c-0.026,0-0.057,0.012-0.09,0.035c-0.727,0.529-1.263,1.129-1.388,1.945c-0.227,1.48-1.144,2.133-2.474,2.552
			c-2.164,0.681-4.33,1.235-6.61,1.235c-0.163,0-0.327-0.004-0.491-0.01c-1.138-0.039-1.149,0.025-1.065-1.127
			c0.121-1.679,0.953-2.838,1.963-4.113c0.111-0.139,0.342-0.051,0.516-0.051c0.001,0,0.002,0,0.003,0
			c0.553,0,1.108-0.158,1.655-0.078c0.172,0.024,0.333,0.096,0.478,0.226c0.271,0.242,0.532,0.444,0.816,0.715
			c0.043,0.041,0.092,0.036,0.138,0.036c0.048,0,0.091-0.035,0.119-0.08c0.041-0.066,0.069,0.053,0.089,0.003
			c0.378-0.952,0.383-0.821,1.333-0.821c0.017,0,0.031,0,0.048,0c0.001,0,0.001,0,0.002,0c0.746,0,1.323-0.545,1.665-1.109
			c0.78-1.291,1.471-2.725,2.154-4.071c0.094-0.185,0.013-0.571-0.103-0.774c-0.207-0.365-0.47-0.738-0.775-1.023
			c-0.179-0.167-0.486-0.275-0.74-0.285c-2.251-0.085-4.507-0.086-6.753-0.232c-2.041-0.133-4.073-0.412-6.105-0.651
			c-0.258-0.03-0.571-0.146-0.73-0.332c-0.308-0.36-0.639-0.508-0.99-0.508c-0.257,0-0.524,0.077-0.804,0.208
			c-1.305,0.607-2.588,1.265-3.913,1.824c-1.902,0.805-3.846,1.508-5.75,2.31c-3.661,1.54-7.59,1.985-11.418,2.839
			c-0.808,0.18-1.643,0.241-2.469,0.331c-0.375,0.041-0.642,0.203-0.736,0.56c-0.131,0.496-0.309,1.002-0.31,1.504
			c-0.005,1.826-0.541,3.481-1.433,5.05c-0.309,0.543-0.613,1.099-0.827,1.683c-0.476,1.297-0.255,2.506,0.623,3.577
			c1.715,2.095,3.724,3.892,5.762,5.657c0.627,0.544,1.256,1.089,1.838,1.679c0.201,0.204,0.351,0.539,0.372,0.826
			c0.116,1.642,0.285,3.271,0.785,4.851c0.358,1.135-0.128,2.127-0.588,3.111c-0.392,0.841-0.797,1.675-1.251,2.624
			c-0.029,0.062-0.077,0.095-0.129,0.095c-0.039,0-0.08-0.019-0.115-0.058c-0.513-0.556-0.992-1.042-1.417-1.572
			c-0.868-1.081-1.432-2.329-1.792-3.657c-0.109-0.402-0.023-0.882,0.069-1.307c0.115-0.534,0.373-1.039,0.474-1.574
			c0.035-0.185-0.171-0.56-0.341-0.615c-0.689-0.222-0.937-0.804-1.332-1.312c-0.756-0.972-1.627-1.854-2.475-2.751
			c-0.909-0.961-1.991-1.676-3.17-2.287c-1.259-0.652-2.467-1.408-3.657-2.182c-0.296-0.192-0.495-0.535-0.735-0.865
			c-0.05-0.068-0.139-0.107-0.225-0.107c-0.039,0-0.077,0.008-0.111,0.024c-0.941,0.467-1.65,1.28-2.135,2.392
			c-0.96,2.196-0.572,4.271,0.435,6.289c0.914,1.832,1.919,3.619,2.892,5.422c0.595,1.104,1.539,1.865,2.542,2.571
			c0.281,0.198,0.573,0.427,0.759,0.708c1.292,1.959,2.319,4.061,3.276,6.197c0.254,0.568,0.21,0.736-0.42,0.818
			c-0.552,0.074-1.114,0.104-1.674,0.104c-0.232,0-0.464-0.005-0.695-0.017c-1.351-0.06-2.63-0.391-3.694-1.295
			c-0.804-0.684-1.267-1.525-1.174-2.615c0.005-0.055,0.001-0.112,0.013-0.166c0.214-0.996-0.037-1.67-1.122-1.996
			c-0.821-0.248-1.264-1.006-1.627-1.739c-1.048-2.116-2.025-4.267-3.102-6.366c-0.842-1.642-1.775-3.236-2.699-4.832
			c-0.61-1.054-1.253-2.09-1.921-3.107c-0.648-0.989-0.479-1.874,0.126-2.82c0.803-1.257,1.516-2.57,2.273-3.857
			c0.671-1.142,0.365-2.301-0.345-3.16c-1.807-2.186-2.642-4.848-3.887-7.307c-0.097-0.193-0.158-0.404-0.259-0.604
			c-0.025-0.05-0.048-0.073-0.064-0.073c-0.02,0-0.03,0.035-0.021,0.102c0.019,0.137,0.036,0.272,0.03,0.408
			c-0.074,1.719-0.179,3.438-0.231,5.157c-0.024,0.812,0.14,1.636,0.052,2.435c-0.131,1.205-0.407,2.393-0.624,3.588
			c-0.049,0.271-0.104,0.541-0.202,0.805c-0.02,0.055-0.038,0.081-0.051,0.081c-0.014,0-0.02-0.033-0.014-0.097
			c0.015-0.151,0.03-0.303,0.045-0.453c0.006-0.062,0.006-0.094,0-0.094c-0.006,0-0.016,0.029-0.03,0.088
			c-0.469,1.937-0.899,3.881-1.962,5.609c-0.03,0.049-0.05,0.072-0.06,0.072c-0.011,0-0.008-0.032,0.013-0.094
			c0.017-0.051,0.035-0.103,0.053-0.155c0.022-0.065,0.022-0.099,0.004-0.099c-0.014,0-0.039,0.02-0.072,0.062
			c-0.604,0.745-1.188,1.468-1.841,2.274c-0.033,0.039-0.067,0.06-0.096,0.06c-0.04,0-0.074-0.036-0.087-0.104
			c-0.015-0.074-0.027-0.135-0.039-0.197c-0.018-0.09-0.084-0.145-0.164-0.145c-0.026,0-0.054,0.006-0.082,0.018
			c-0.287,0.128-0.562,0.24-0.812,0.398c-0.28,0.176-0.547,0.396-0.82,0.631c-0.045,0.039-0.085,0.058-0.115,0.058
			c-0.032,0-0.053-0.022-0.053-0.065c0-0.076-0.031-0.135-0.071-0.135c-0.005,0-0.009,0.001-0.014,0.002
			c-0.037,0.014-0.05,0.023-0.075,0.044c-1.354,1.099-2.529,2.347-3.465,3.845c-0.615,0.986-1.418,1.897-2.299,2.654
			c-0.33,0.284-0.606,0.616-0.971,0.881c-0.036,0.026-0.063,0.038-0.08,0.038c-0.032,0-0.032-0.038,0.008-0.106
			c0.089-0.152,0.178-0.305,0.267-0.455c0.062-0.106,0.096-0.205,0.077-0.221c-0.002-0.002-0.005-0.004-0.008-0.004
			c-0.028,0-0.1,0.059-0.172,0.141c-0.237,0.275-0.48,0.556-0.754,0.871c-0.033,0.039-0.061,0.058-0.079,0.058
			c-0.026,0-0.036-0.037-0.022-0.106c0.001-0.009,0.003-0.016,0.004-0.023c0.016-0.08-0.006-0.124-0.051-0.124
			c-0.023,0-0.052,0.011-0.086,0.036c-0.585,0.42-1.149,0.824-1.749,1.256c-0.033,0.023-0.065,0.035-0.093,0.035
			c-0.056,0-0.097-0.045-0.102-0.127c-0.015-0.231-0.028-0.469-0.039-0.639c-0.012-0.119-0.055-0.285-0.101-0.285
			c-0.002,0-0.004,0-0.006,0c-0.048,0-0.141,0.123-0.214,0.215C5.701,84.3,5.684,84.6,5.666,84.622
			c-0.075,0.092-0.147,0.44-0.165,0.44c-0.001,0-0.001,0-0.001,0c-0.016-1,0.01-0.352,0.057-0.465
			c0.081-0.193,0.161-0.512,0.242-0.705c0.047-0.113,0.067-0.277,0.044-0.289C5.84,83.602,5.838,83.57,5.836,83.57
			c-0.029,0-0.1,0.051-0.168,0.141c-0.126,0.169-0.252,0.18-0.379,0.348c-0.07,0.094-0.14,0.004-0.163,0.004
			c-0.001,0-0.002,0-0.003,0c-0.003,0-0.003,0.002-0.005,0.004c0.005-0.006,0.015-0.025,0.03-0.082
			c0.101-0.373,0.204-0.674,0.315-1.086c0.022-0.082,0.002-0.088-0.046-0.088c-0.022,0-0.051,0.028-0.083,0.049
			c-0.003,0.002-0.006,0.014-0.009,0.016c-0.033,0.021-0.061,0.035-0.083,0.035c-0.048,0-0.068-0.043-0.045-0.123
			c0.655-2.303,1.893-4.285,2.655-6.48c0.022-0.063,0.023-0.097,0.007-0.097c-0.013,0-0.037,0.021-0.07,0.065
			c-0.165,0.218-0.33,0.437-0.495,0.654c-0.069,0.092-0.137,0.158-0.16,0.158c-0.002,0-0.003,0-0.004-0.001
			c-0.017-0.011,0.021-0.104,0.083-0.21c0.912-1.529,1.824-3.059,2.736-4.589c0.063-0.104,0.08-0.212,0.038-0.238
			c-0.005-0.005-0.013-0.007-0.022-0.007c-0.047,0-0.121,0.055-0.182,0.139c-0.201,0.276-0.401,0.494-0.602,0.772
			c-0.069,0.095-0.138,0.108-0.16,0.108c-0.001,0-0.002,0-0.002,0c-0.018,0-0.006-0.033,0.027-0.135
			c0.033-0.1,0.04-0.173,0.015-0.197c-0.004-0.004-0.011,0.008-0.019,0.008c-0.037,0-0.111,0.054-0.181,0.125
			c-0.407,0.418-0.819,0.843-1.276,1.312c-0.036,0.038-0.061,0.058-0.073,0.058c-0.015,0-0.007-0.03,0.027-0.092
			c0.105-0.187,0.197-0.356,0.286-0.515c0.06-0.106,0.091-0.224,0.07-0.249c-0.006-0.007-0.019-0.012-0.037-0.012
			c-0.042,0-0.112,0.023-0.183,0.072c-0.504,0.354-1.012,0.668-1.552,1.047c-0.023,0.016-0.043,0.022-0.06,0.022
			c-0.057,0-0.077-0.079-0.044-0.157c0.043-0.1-0.253-0.264-0.137-0.287c0.55-0.108,1.023-0.838,1.023-0.838
			c0.776-1.229,1.755-2.367,2.511-3.607c1.033-1.697,1.791-3.532,2.139-5.502c0.043-0.245,0.068-0.496,0.082-0.746
			c0.005-0.076,0.018-0.117,0.032-0.117c0.009,0,0.018,0.016,0.025,0.047c0.008,0.033,0.02,0.049,0.035,0.049
			c0.023,0,0.052-0.037,0.076-0.107c0.49-1.408,0.959-2.684,1.426-4.026c0.04-0.116,0.064-0.149,0.053-0.149c0,0-0.001,0-0.002,0
			c-0.014,0-0.066,0.008-0.118,0.113c-0.198,0.395-0.396,0.549-0.594,0.943c-0.048,0.095-0.1-0.027-0.128-0.049
			c0-0.002,0.001-0.002,0.001-0.004c0.018-0.062,0.038-0.02,0.067-0.076c1.214-2.385,2.419-4.723,3.661-7.094
			c0.244-0.465,0.588-0.879,0.97-1.242c1.159-1.106,2.365-2.149,3.54-3.239c0.417-0.387,0.792-0.814,1.193-1.219
			c0.207-0.209,0.406-0.435,0.649-0.594c1.593-1.042,3.016-2.244,4.206-3.761c1.585-2.021,3.746-3.374,5.897-4.716
			c0.517-0.322,1.028-0.668,1.582-0.912c0.736-0.324,1.492-0.674,2.274-0.804c1.122-0.187,2.283-0.13,3.412-0.285
			c0.814-0.112,1.621-0.351,2.401-0.621c1.865-0.645,3.706-1.358,5.569-2.01c1.223-0.428,1.908-1.494,2.825-2.286
			c0.054-0.047,0.085-0.121,0.111-0.201c0.037-0.117,0.044-0.234,0.016-0.262c-0.009-0.008-0.024-0.013-0.046-0.013
			c-0.05,0-0.128,0.022-0.205,0.06c-0.295,0.147-0.595,0.295-0.915,0.454c-0.035,0.017-0.062,0.025-0.08,0.025
			c-0.039,0-0.037-0.038,0.012-0.105c0.078-0.107,0.153-0.209,0.227-0.309c0.072-0.099,0.122-0.197,0.11-0.219
			c-0.003-0.006-0.012-0.008-0.026-0.008c-0.039,0-0.115,0.022-0.198,0.06c-0.5,0.227-1,0.455-1.5,0.682
			c-0.082,0.037-0.164,0.059-0.211,0.059c-0.017,0-0.029-0.003-0.036-0.009c-0.025-0.023,0.008-0.126,0.072-0.23
			c0.058-0.094,0.123-0.2,0.206-0.334c0.048-0.078,0.038-0.124-0.017-0.124c-0.019,0-0.043,0.005-0.072,0.017
			c-0.805,0.32-1.52,0.604-2.227,0.885c-0.091,0.036-0.172,0.06-0.204,0.06c-0.008,0-0.012-0.001-0.014-0.004
			c-0.006-0.015,0.076-0.074,0.184-0.131c0.608-0.326,1.216-0.651,1.824-0.977c0.108-0.058,0.181-0.137,0.163-0.176
			c-0.009-0.02-0.041-0.03-0.085-0.03s-0.1,0.01-0.158,0.029c-0.25,0.084-0.499,0.168-0.749,0.252
			c-0.071,0.024-0.138,0.037-0.182,0.037c-0.028,0-0.046-0.005-0.051-0.016c-0.012-0.027,0.054-0.112,0.149-0.19
			c0.062-0.051,0.124-0.101,0.186-0.152c0.095-0.077,0.164-0.167,0.155-0.201c-0.007-0.024-0.063-0.038-0.139-0.038
			c-0.03,0-0.063,0.002-0.097,0.007c-0.171,0.023-0.345,0.047-0.531,0.071c-0.016,0.002-0.029,0.003-0.042,0.003
			c-0.083,0-0.09-0.047-0.007-0.115c0.052-0.043,0.105-0.087,0.161-0.133c0.094-0.078,0.084-0.19-0.031-0.231
			c-0.17-0.062-0.336-0.086-0.5-0.086c-0.511,0-1,0.237-1.527,0.322c-0.018,0.003-0.033,0.004-0.046,0.004
			c-0.077,0-0.078-0.046,0.008-0.106c0.664-0.466,1.279-0.896,1.889-1.324c0.1-0.07,0.177-0.138,0.173-0.152
			c-0.001-0.002-0.005-0.004-0.011-0.004c-0.029,0-0.11,0.024-0.204,0.062l-1.146,0.465c-0.074,0.03-0.145,0.047-0.189,0.047
			c-0.023,0-0.039-0.005-0.044-0.014c-0.015-0.028,0.057-0.103,0.161-0.168c0.453-0.281,0.906-0.561,1.359-0.842
			c0.104-0.064,0.182-0.139,0.173-0.167c-0.004-0.012-0.025-0.018-0.058-0.018c-0.043,0-0.104,0.01-0.17,0.029
			c-0.113,0.032-0.229,0.065-0.354,0.101c-0.022,0.006-0.042,0.009-0.058,0.009c-0.074,0-0.097-0.056-0.039-0.138
			c0.503-0.716,1.405-0.849,2.001-1.403c0.068-0.063,0.067-0.105,0.012-0.105c-0.018,0-0.041,0.004-0.069,0.014
			c-0.117,0.039-0.242,0.08-0.388,0.128c-0.035,0.011-0.06,0.017-0.077,0.017c-0.039,0-0.026-0.03,0.043-0.082
			c0.066-0.05,0.126-0.096,0.187-0.143c0.097-0.074,0.077-0.141-0.045-0.15c-0.163-0.011-0.315-0.021-0.484-0.033
			c-0.122-0.008-0.127-0.046-0.011-0.085c0.212-0.071,0.399-0.133,0.578-0.193c0.116-0.039,0.206-0.087,0.2-0.111
			c-0.003-0.011-0.025-0.016-0.06-0.016c-0.042,0-0.102,0.007-0.168,0.02c-0.321,0.065-0.643,0.143-0.967,0.183
			c-0.014,0.002-0.029,0.003-0.044,0.003c-0.047,0-0.097-0.01-0.146-0.035c-0.01-0.005-0.009-0.009-0.017-0.014
			c0.001,0.045-0.002,0.086-0.009,0.086c-0.018,0-0.06,0.256-0.121,0.256h-0.869c-0.122,0-0.122-0.322,0-0.327
			c0.868-0.036,1.667-0.638,2.336-1.258c0.084-0.075,0.059-0.411-0.049-0.411c-0.005,0-0.011,0-0.016,0c-0.096,0-0.197,0-0.303,0
			c-0.457-0.167-0.921-0.317-1.387-0.487c-0.115-0.042-0.203-0.089-0.197-0.118c0.006-0.028,0.111-0.051,0.233-0.056
			c0.034-0.002,0.069-0.001,0.107-0.002c0.122-0.006,0.161-0.088,0.087-0.185c-0.149-0.195-0.282-0.37-0.4-0.524
			c-0.074-0.097-0.079-0.236-0.015-0.314c0.047-0.057,0.086-0.116,0.073-0.161c-0.038-0.129-0.197-0.264-0.335-0.313
			c-0.267-0.094-0.545-0.156-0.815-0.287c-0.11-0.053-0.095-0.112,0.028-0.118c0.729-0.034,1.457-0.069,2.186-0.103
			c0.122-0.006,0.225-0.043,0.23-0.083s-0.039-0.1-0.097-0.133c-0.058-0.033-0.008-0.08,0.112-0.105
			c0.125-0.026,0.25-0.051,0.373-0.076c0.12-0.025,0.218-0.07,0.218-0.101s-0.098-0.064-0.22-0.073
			c-0.27-0.02-0.548-0.04-0.866-0.063c-0.122-0.009-0.123-0.033-0.003-0.054c0.518-0.09,0.993-0.172,1.461-0.254
			c0.121-0.021,0.223-0.069,0.228-0.108c0.005-0.039-0.088-0.092-0.207-0.12c-0.049-0.011-0.098-0.022-0.147-0.033
			c-0.119-0.027-0.131-0.099-0.025-0.161c0.864-0.506,1.743-1.02,2.737-1.602c0.091-0.053,0.094-0.091,0.017-0.091
			c-0.014,0-0.028,0.001-0.045,0.003c-0.438,0.054-0.848,0.131-1.235,0.131c-0.29,0-0.568-0.044-0.837-0.173
			c-0.11-0.053-0.095-0.126,0.026-0.147c0.229-0.039,0.469-0.081,0.712-0.123c0.121-0.021,0.206-0.062,0.19-0.091
			c-0.016-0.03,0.066-0.083,0.183-0.119c0.361-0.112,0.722-0.224,1.082-0.337c0.117-0.036,0.207-0.104,0.201-0.151
			s-0.108-0.094-0.23-0.105c-0.274-0.025-0.549-0.05-0.824-0.075c-0.122-0.011-0.219-0.038-0.218-0.06s0.101-0.056,0.222-0.075
			c0.317-0.051,0.635-0.101,0.952-0.152c0.121-0.019,0.218-0.071,0.216-0.116s-0.101-0.096-0.222-0.115
			c-0.204-0.031-0.408-0.062-0.612-0.094c-0.121-0.018-0.167-0.075-0.102-0.126c0.064-0.051,0.123-0.132,0.13-0.181
			s-0.083-0.112-0.202-0.141c-0.85-0.211-1.703-0.424-2.608-0.649c-0.088-0.022-0.11-0.035-0.065-0.035
			c0.016,0,0.039,0.002,0.07,0.005c0.557,0.059,0.899,0.093,1.116,0.093c0.198,0,0.292-0.028,0.353-0.09
			c0.086-0.087,0.017-0.238-0.094-0.29c-0.247-0.118-0.481-0.372-0.425-0.736c0.019-0.119,0.15-0.325,0.269-0.325
			c0.004,0,0.007,0,0.011,0c0.2,0,0.428,0.139,0.654,0.167c0.257,0.032,0.443,0.116,0.587,0.116c0.332,0,0.437-0.094,0.667-0.528
			c0.057-0.108,0.013-0.223-0.099-0.275c-0.375-0.174-0.75-0.341-1.124-0.516c-0.111-0.052-0.191-0.115-0.178-0.147
			c0.005-0.012,0.024-0.017,0.052-0.017c0.043,0,0.108,0.015,0.177,0.043c0.275,0.111,0.547,0.23,0.833,0.297
			c0.205,0.048,0.426,0.156,0.635,0.156c0.168,0,0.329-0.07,0.466-0.298c0.021-0.033,0.098-0.031,0.148-0.047
			c1.651-0.55,3.304-1.096,4.952-1.653c0.29-0.098,0.57-0.107,0.837-0.294c0.095-0.065,0.079-0.004-0.024-0.004
			c-0.007,0-0.014,0-0.021,0l-0.127-0.108c-0.025,0.002-0.052-0.055-0.075-0.055c-0.09,0-0.158-0.04-0.167-0.057
			c-0.013-0.022,0.065-0.1,0.175-0.157c0.428-0.226,0.856-0.458,1.285-0.684c0.107-0.057,0.188-0.125,0.18-0.147
			C58.59,9.84,58.542,9.83,58.475,9.83c-0.034,0-0.074,0.001-0.115,0.006c-0.035,0.004-0.068,0.007-0.101,0.011
			c-0.021,0.002-0.036,0.003-0.05,0.003c-0.071,0-0.062-0.028,0.031-0.07c0.951-0.43,1.986-0.898,3.027-1.369
			c0.112-0.05,0.195-0.18,0.185-0.225c-0.007-0.04-0.098-0.123-0.206-0.123c-0.011,0-0.021,0-0.031,0
			c-0.257,0-0.528,0.076-0.858,0.095c-0.006,0-0.011,0.002-0.018,0.002c-0.001,0-0.002,0.002-0.004,0.003
			c-0.016,0.005-0.029-0.024-0.04-0.024c-0.076-0.001-0.063-0.076,0.04-0.076h0.001c0.001,0,0.002,0.047,0.004,0.047
			c0.006,0,0.011,0.023,0.018,0.023c0.188-0.041,0.347-0.059,0.511-0.095c0.12-0.027,0.129-0.085,0.021-0.141
			c-0.523-0.271-0.997-0.512-1.451-0.746C59.352,7.106,59.34,7.08,59.398,7.08c0.016,0,0.036,0.003,0.062,0.007
			c0.591,0.099,1.185,0.195,1.78,0.295c0.027,0.005,0.055,0.007,0.079,0.007c0.086,0,0.153-0.025,0.163-0.058
			c0.014-0.043-0.036-0.136-0.108-0.182c-0.073-0.046-0.034-0.144,0.085-0.169c0.319-0.067,0.63-0.206,0.938-0.27
			c0,0-0.805-0.24,0.355-0.404c1.085-0.154,2.009-0.557,2.927-1.151c0.746-0.483,1.641-0.763,2.5-1.04
			c1.025-0.331,2.084-0.557,3.125-0.841c0.387-0.106,0.758-0.311,1.148-0.353c0.232-0.025,0.466,0.048,0.693,0.048
			c0.255,0,0.507,0.094,0.743,0.094c0.003,0,0.005,0,0.008,0c0.122,0,0.299-0.135,0.394-0.208c0.104-0.081,0.202-0.194,0.303-0.196
			c0.361-0.007,0.722-0.031,1.082-0.031c1.792,0,3.578,0.097,5.327,0.561c0.419,0.111,0.804,0.337,1.218,0.475
			c0.081,0.027,0.184,0.043,0.282,0.043c0.093,0,0.182-0.018,0.238-0.06c0.43-0.313,0.824-0.673,1.226-1.023
			c0.185-0.161,0.363-0.331,0.541-0.5c0.075-0.071,0.159-0.118,0.205-0.118c0.008,0,0.015,0.002,0.021,0.005
			c0.035,0.021,0.064,0.128,0.063,0.239c-0.001,0.068-0.004,0.135-0.021,0.199c-0.102,0.393-0.223,0.781-0.338,1.17
			c-0.238,0.808-0.232,0.793,0.572,1.055c0.347,0.113,0.72,0.246,0.988,0.478c0.272,0.237,0.554,0.28,0.854,0.28
			c0.088,0,0.178-0.004,0.271-0.007c0.043-0.002,0.086-0.203,0.129-0.203c0.305,0,0.609-0.159,0.916-0.159c0.028,0,0.059,0,0.088,0
			c1.091,0,2.13,0.161,3.106-0.345c0.058-0.029,0.124,0.345,0.194,0.345c0.005,0,0.009,0,0.014,0c0.104,0,0.182-0.106,0.175,0.001
			c-0.004,0.072-0.015,0.047-0.049,0.1c-0.439,0.687-0.9,1.297-1.714,1.621c-0.441,0.176-0.859,0.406-1.26,0.668
			c-0.699,0.458-0.857,0.991-0.627,1.797c0.348,1.223,0.746,2.433,0.969,3.679c0.108,0.601-0.129,1.262-0.221,1.896
			c-0.042,0.289-0.169,0.573-0.165,0.859c0.037,2.544,0.45,5.031,1.156,7.474c0.119,0.414,0.205,0.836,0.28,1.191
			c0.025,0.12,0.078,0.27,0.099,0.343c0.012,0.045,0.019,0.09,0.019,0.135c0,0.05-0.006,0.097-0.018,0.141
			c-0.021,0.076-0.071,0.177-0.102,0.229c-0.029,0.052-0.073,0.126-0.096,0.169c-0.013,0.025-0.027,0.049-0.045,0.074
			c-0.123,0.176-0.263,0.333-0.404,0.491c-0.082,0.091-0.092,0.249-0.017,0.345c0.06,0.077,0.123,0.153,0.187,0.229
			c0.049,0.059,0.083,0.123,0.105,0.19c0.037,0.115,0.039,0.229,0.049,0.249c0.007,0.014,0.011,0.027,0.011,0.039
			c0,0.132-0.063,0.325-0.165,0.385c-0.472,0.279-0.959,0.531-1.477,0.807c-0.108,0.057-0.115,0.162-0.015,0.234
			c0.045,0.032,0.089,0.064,0.135,0.097c0.1,0.071,0.106,0.197,0.007,0.267c-0.331,0.231-0.676,0.306-1.035,0.306
			c-0.202,0-0.408-0.024-0.618-0.057c-0.091-0.014-0.183,0.003-0.275,0.003c-0.179,0-0.358,0.04-0.536,0.04c-0.01,0-0.021,0-0.029,0
			c-0.003,0-0.006,0-0.01,0c-0.052,0-0.112-0.018-0.169-0.018c-0.076,0-0.147-0.019-0.185-0.057
			c-0.395-0.402-0.882-0.449-1.408-0.512c-0.729-0.086-1.367-0.984-1.267-1.723c0.133-0.97-0.148-1.705-0.829-2.443
			c-0.569-0.618-0.858-1.491-1.305-2.231c-0.117-0.195-0.333-0.375-0.544-0.458c-0.086-0.034-0.168-0.051-0.246-0.051
			c-0.223,0-0.401,0.141-0.47,0.423c-0.229,0.925-0.604,1.849-0.625,2.78c-0.033,1.394,0.14,2.799,0.311,4.188
			c0.192,1.559,0.972,2.878,1.843,4.159c0.98,1.441,1.541,2.999,1.235,4.804c-0.166,0.979-0.185,1.984-0.229,2.979
			c-0.009,0.189,0.125,0.477,0.28,0.566c2.789,1.596,5.217,3.669,7.655,5.732c0.407,0.345,0.877,0.617,1.274,0.972
			c1.035,0.925,1.167,2.118,0.928,3.396c-0.054,0.287-0.133,0.592-0.287,0.834c-0.724,1.142-0.756,2.349-0.442,3.615
			c0.488,1.967,0.938,3.944,1.447,5.905C92.997,62.49,92.929,62.994,92.64,63.459z"/>
	</g>
</g>
</svg>